<?xml version="1.0" encoding="utf-8"?>
<!-- Svg Vector Icons : http://www.onlinewebfonts.com/icon -->
<!DOCTYPE svg PUBLIC "-//W3C//DTD SVG 1.1//EN" "http://www.w3.org/Graphics/SVG/1.1/DTD/svg11.dtd">
<svg version="1.1" xmlns="http://www.w3.org/2000/svg" xmlns:xlink="http://www.w3.org/1999/xlink" x="0px" y="0px" viewBox="0 0 256 256" enable-background="new 0 0 256 256" xml:space="preserve">
<metadata> Svg Vector Icons : http://www.onlinewebfonts.com/icon </metadata>
<g><g><path fill="#000000" d="M128,10C62.8,10,10,62.8,10,128c0,65.2,52.8,118,118,118c65.2,0,118-52.8,118-118C246,62.8,193.2,10,128,10z M55.7,55.7L55.7,55.7c8.3-8.3,17.7-15,28.2-20c-7.6,10.1-13.9,22.8-18.5,37.2H41.8C45.8,66.7,50.4,61,55.7,55.7z M33.6,88.7h27.7c-2.1,9.9-3.4,20.5-3.9,31.5H26C26.8,109.3,29.4,98.7,33.6,88.7z M26,135.9h31.3c0.4,11,1.8,21.5,3.9,31.5H33.6C29.4,157.3,26.8,146.7,26,135.9z M55.7,200.3c-5.3-5.3-9.9-11.1-13.9-17.2h23.6c4.6,14.4,10.9,27.1,18.5,37.2C73.4,215.3,63.9,208.6,55.7,200.3z M120.1,229.1c-3.6-1-7.2-2.8-10.6-5.2c-6.5-4.6-12.8-11.7-18.1-20.5c-3.7-6.1-6.8-12.9-9.5-20.3h38.2V229.1z M120.1,167.3H77.3c-2.4-10.1-3.8-20.6-4.2-31.5h47V167.3z M120.1,120.1h-47c0.5-10.9,1.9-21.4,4.2-31.5h42.8L120.1,120.1L120.1,120.1z M120.1,72.9H82c2.6-7.4,5.8-14.2,9.5-20.3c5.3-8.8,11.6-15.9,18.1-20.5c3.5-2.5,7-4.2,10.6-5.2V72.9z M135.8,26.9c3.6,1,7.2,2.8,10.6,5.2c6.5,4.6,12.8,11.7,18.1,20.5c3.7,6.1,6.8,12.9,9.5,20.3h-38.2V26.9z M135.8,88.7h42.8c2.4,10.1,3.8,20.6,4.2,31.5h-47V88.7z M135.8,135.9h47c-0.5,10.9-1.9,21.4-4.2,31.5h-42.8V135.9z M146.5,223.8c-3.5,2.5-7,4.2-10.6,5.2l0-46H174c-2.6,7.4-5.8,14.2-9.4,20.3C159.3,212.2,153,219.3,146.5,223.8z M200.3,200.3c-8.3,8.3-17.7,15-28.2,20c7.6-10.1,13.9-22.8,18.5-37.2h23.6C210.2,189.3,205.6,195,200.3,200.3z M222.4,167.3h-27.7c2.1-9.9,3.4-20.5,3.9-31.5h31.3C229.1,146.7,226.6,157.3,222.4,167.3z M230,120.1h-31.3c-0.4-11-1.8-21.5-3.9-31.5h27.7C226.6,98.7,229.1,109.3,230,120.1z M190.6,72.9c-4.6-14.4-10.9-27.1-18.5-37.2c10.4,5,19.9,11.7,28.2,20c5.3,5.3,9.9,11.1,13.9,17.2H190.6z"/></g></g>
</svg>